<?xml version="1.0" encoding="iso-8859-1"?>
<!-- Uploaded to: SVG Repo, www.svgrepo.com, Generator: SVG Repo Mixer Tools -->
<!DOCTYPE svg PUBLIC "-//W3C//DTD SVG 1.1//EN" "http://www.w3.org/Graphics/SVG/1.1/DTD/svg11.dtd">
<svg fill="#000000" version="1.1" id="Capa_1" xmlns="http://www.w3.org/2000/svg" xmlns:xlink="http://www.w3.org/1999/xlink" 
	 width="800px" height="800px" viewBox="0 0 490.976 490.977"
	 xml:space="preserve">
<g>
	<g>
		<path d="M383.646,119.163c-5.116,0-10.22,0.387-15.312,1.12c-19.769-20.659-44.664-35.191-72.599-42.268
			c-0.366-0.105-0.744-0.18-1.11-0.246l-18.021-3.402c-22.05-27.565-55.41-43.76-91.024-43.76
			c-61.258,0-111.623,47.486-116.217,107.579C27.88,153.849,0,193.337,0,238.76c0,59.354,48.293,107.651,107.666,107.651
			c15.318,0,30.315-3.23,44.084-9.439c25.413,24.523,58.499,39.391,93.738,42.25V237.94c0-7.617,6.176-13.796,13.799-13.796
			c7.632,0,13.8,6.179,13.8,13.796v141.101c36.257-3.585,69.932-19.93,95.248-46.339c5.067,0.738,10.195,1.123,15.3,1.123
			c59.195,0,107.342-48.146,107.342-107.327C490.976,167.309,442.83,119.163,383.646,119.163z"/>
		<path d="M245.488,379.222v29.436l-9.154-10.905c-4.894-5.831-13.589-6.605-19.438-1.705c-5.84,4.899-6.602,13.606-1.708,19.443
			l33.53,39.95c0.12,0.126,0.265,0.234,0.382,0.366c0.399,0.444,0.834,0.841,1.285,1.225c0.281,0.229,0.534,0.475,0.834,0.69
			c0.505,0.366,1.054,0.667,1.612,0.967c0.276,0.156,0.541,0.324,0.835,0.457c0.637,0.287,1.333,0.492,2.023,0.678
			c0.24,0.066,0.456,0.162,0.69,0.217c0.937,0.197,1.922,0.33,2.919,0.33c0.996,0,1.976-0.133,2.918-0.33
			c0.24-0.055,0.45-0.15,0.69-0.217c0.696-0.186,1.388-0.391,2.023-0.678c0.295-0.133,0.559-0.301,0.841-0.457
			c0.553-0.3,1.105-0.601,1.609-0.967c0.301-0.216,0.559-0.462,0.835-0.69c0.45-0.384,0.883-0.78,1.285-1.225
			c0.113-0.126,0.258-0.229,0.378-0.366l33.531-39.95c4.899-5.837,4.131-14.544-1.706-19.443
			c-5.837-4.888-14.544-4.132-19.443,1.705l-9.151,10.905v-29.61c-5.008,0.505-10.076,0.774-15.18,0.774
			C253.75,379.821,249.616,379.552,245.488,379.222z"/>
	</g>
</g>
</svg>