<?xml version="1.0" encoding="iso-8859-1"?>
<!-- Uploaded to: SVG Repo, www.svgrepo.com, Generator: SVG Repo Mixer Tools -->
<svg version="1.1" id="Layer_1" xmlns="http://www.w3.org/2000/svg" xmlns:xlink="http://www.w3.org/1999/xlink" 
	 viewBox="0 0 512 512" xml:space="preserve">
<path style="fill:#F7B239;" d="M323.286,276.612l11.276,74.881l-78.555,117.229l-79.764-137.774l12.484-54.336
	c2.586-1.064,5.221-2.03,7.904-2.888c17.379,10.345,37.682,16.279,59.376,16.279s41.985-5.934,59.364-16.279h0.012
	C318.065,274.581,320.699,275.548,323.286,276.612z"/>
<path style="fill:#E09B2D;" d="M323.286,276.612l0.399,38.625l-21.452-2.151c-14.164,6.139-29.791,9.547-46.227,9.547
	c-16.424,0-32.063-3.408-46.227-9.547l-27.494-7.517l6.442-28.957c2.586-1.064,5.221-2.03,7.904-2.888
	c17.379,10.345,37.682,16.279,59.376,16.279s41.985-5.934,59.364-16.279h0.012C318.065,274.581,320.699,275.548,323.286,276.612z"/>
<g>
	<rect x="405.793" y="9.064" style="fill:#F7B239;" width="12.085" height="72.428"/>
	<polygon style="fill:#F7B239;" points="395.916,109.893 411.836,46.94 427.755,109.893 	"/>
</g>
<path style="fill:#666666;" d="M256.006,511.988V512H124.238V372.836c0-43.447,26.636-80.67,64.488-96.224l67.28,116.54V511.988z"/>
<path style="fill:#4D4D4D;" d="M206.804,307.925l-18.077-31.313c-37.852,15.554-64.488,52.777-64.488,96.224V512h59.821V372.836
	C184.058,348.281,192.571,325.716,206.804,307.925z"/>
<g>
	<path style="fill:#666666;" d="M387.774,372.836V512H256.006v-0.012V393.152l67.28-116.54
		C361.137,292.166,387.774,329.389,387.774,372.836z"/>
	<polygon style="fill:#666666;" points="171.698,115.699 171.698,9.886 341.474,9.886 341.474,117.289 227.472,117.289 
		171.698,117.289 	"/>
</g>
<path style="fill:#F7EDCD;" d="M196.63,273.723c-34.105-20.267-56.959-57.49-56.959-100.055c0,0,65.576-49.683,106.86-77.48
	c22.008,21.814,85.915,41.997,125.797,77.48c0,42.565-22.854,79.776-56.947,100.055h-0.012
	c-17.379,10.345-37.67,16.279-59.364,16.279C234.313,290.002,214.009,284.068,196.63,273.723z"/>
<path style="fill:#B27214;" d="M199.204,115.223l-13.294-3.626c-19.832,20.872-29.411,26.095-46.239,62.071
	c0,0,32.425-7.529,62.083-21.403c19.373-9.064,37.574-20.835,44.777-34.975c-0.004-0.004-0.007-0.007-0.011-0.011
	c0.004,0.004,0.007,0.007,0.011,0.011c22.008,21.814,63.388,52.221,125.797,56.379c0-30.455-11.711-58.155-30.854-78.882v-0.012
	H225.055L199.204,115.223z"/>
<path style="fill:#E0D5B8;" d="M286.063,286.063c-9.584,2.562-19.663,3.94-30.057,3.94c-21.693,0-41.997-5.934-59.376-16.279
	c-34.105-20.267-56.959-57.49-56.959-100.055c0,0,14.052-22.016,31.736-28.03c9.575-3.256,19.929,11.501,30.347,6.626
	c-1.293,6.937-1.97,14.092-1.97,21.403c0,42.565,22.854,79.788,56.959,100.055C265.795,279.113,275.645,283.283,286.063,286.063z"/>
<rect x="246.93" y="338.199" style="fill:#F7B239;" width="18.128" height="173.789"/>
<g>
	<polygon style="fill:#4D4D4D;" points="341.474,9.886 216.171,9.886 171.698,9.886 171.698,34.854 171.698,93.517 171.698,94.774 
		186.308,94.774 216.171,94.774 216.171,34.854 341.474,34.854 	"/>
	<path style="fill:#4D4D4D;" d="M208.305,223.206c-5.007,0-9.064-4.058-9.064-9.064V196.86c0-5.006,4.057-9.064,9.064-9.064
		c5.007,0,9.064,4.058,9.064,9.064v17.282C217.369,219.148,213.312,223.206,208.305,223.206z"/>
	<path style="fill:#4D4D4D;" d="M304.88,223.206c-5.007,0-9.064-4.058-9.064-9.064V196.86c0-5.006,4.057-9.064,9.064-9.064
		s9.064,4.058,9.064,9.064v17.282C313.944,219.148,309.887,223.206,304.88,223.206z"/>
</g>
<path style="fill:#666666;" d="M432.683,18.128H79.317c-5.007,0-9.064-4.058-9.064-9.064S74.31,0,79.317,0h353.366
	c5.007,0,9.064,4.058,9.064,9.064S437.69,18.128,432.683,18.128z"/>
<path style="fill:#995C0D;" d="M171.699,94.774L171.699,94.774L171.699,94.774h-1.169c-19.14,20.741-30.859,48.451-30.859,78.894
	c0,0,32.425-7.529,62.083-21.403c3.916-21.029,13.499-40.075,27.083-55.496c-0.031-0.046,0.68-0.865,1.696-1.994H171.699z"/>
</svg>